<?xml version="1.0" standalone="no"?>
<svg width="567.429" height="440.751" viewBox="0 0 567.429 440.751" xmlns="http://www.w3.org/2000/svg" shape-rendering="crispEdges">
<title>
ChargeRPC1.svg
</title>
<desc>
Creator: ROOT Version 6.28/06
CreationDate: Fri May  2 14:03:46 2025</desc>
<defs>
</defs>
<rect x="0.5" y="0" width="566.929" height="440.251" fill="white"/>
<rect x="6.16929" y="4.40251" width="272.126" height="211.32" fill="white"/>
<rect x="33.3819" y="25.5345" width="217.701" height="169.056" fill="white"/>
<rect x="33.3819" y="25.5345" width="217.701" height="169.056" fill="none" stroke="black"/>
<path d="M33.3819,194.591h 4.35402v -1.0178h 0.870803v 1.0178h 4.35402v -1.0178h 0.870803v 1.0178h 7.83723v -1.0178h 0.870803v 1.0178h 4.35402v -1.0178h 0.870803v -1.0178h 0.870803v 2.0356h 2.61241v -1.0178h 0.870803v 1.0178h 1.74161v -1.0178h
 0.870803v 1.0178h 0.870803v -1.0178h 0.870803v -1.0178h 0.870803v 2.0356h 0.870803v -1.0178h 0.870803v 1.0178h 0.870803v -1.0178h 1.74161v 1.0178h 0.870803v -2.0356h 0.870803v 1.0178h 1.74161v -2.0356h 0.870803v 3.05339h 0.870803v -1.0178h 2.61241v
 -1.0178h 0.870803v 2.0356h 1.74161v -2.0356h 0.870803v 2.0356h 1.74161v -1.0178h 0.870803v -2.0356h 0.870803v 2.0356h 1.74161v 1.0178h 0.870803v -2.0356h 0.870803v 2.0356h 0.870803v -3.05339h 0.870803v 2.0356h 0.870803v -1.0178h 1.74161v 1.0178h
 0.870803v 1.0178h 2.61241v -1.0178h 0.870803v -2.0356h 0.870803v 2.0356h 0.870803v 1.0178h 0.870803v -1.0178h 0.870803v -1.0178h 0.870803v 1.0178h 0.870803v -1.0178h 0.870803v 1.0178h 0.870803v 1.0178h 0.870803v -4.07119h 0.870803v 1.0178h 2.61241v
 2.0356h 0.870803v 1.0178h 0.870803v -1.0178h 1.74161v 1.0178h 0.870803v -2.0356h 2.61241v 1.0178h 0.870803v -2.0356h 0.870803v 3.05339h 0.870803v -2.0356h 0.870803v 1.0178h 0.870803v -2.0356h 0.870803v -1.0178h 0.870803v 2.0356h 0.870803v -1.0178h
 0.870803v 1.0178h 0.870803v -4.07119h 1.74161v 5.08899h 2.61241v -2.0356h 0.870803v 3.05339h 0.870803v -3.05339h 0.870803v -3.05339h 0.870803v 2.0356h 0.870803v 2.0356h 0.870803v -5.08899h 0.870803v 2.0356h 0.870803v 1.0178h 1.74161v 2.0356h
 0.870803v -1.0178h 0.870803v 1.0178h 0.870803v -2.0356h 0.870803v -1.0178h 0.870803v 2.0356h 0.870803v -4.07119h 0.870803v 2.0356h 0.870803v 2.0356h 0.870803v -3.05339h 0.870803v 1.0178h 0.870803v -3.05339h 0.870803v 3.05339h 0.870803v 1.0178h
 0.870803v 2.0356h 0.870803v -5.08899h 0.870803v -1.0178h 0.870803v 3.05339h 0.870803v -2.0356h 1.74161v -1.0178h 0.870803v 6.10679h 0.870803v -9.16018h 0.870803v 1.0178h 0.870803v 2.0356h 0.870803v -1.0178h 0.870803v -2.0356h 0.870803v 4.07119h
 0.870803v -5.08899h 0.870803v 2.0356h 0.870803v -2.0356h 0.870803v -5.08899h 1.74161v 9.16018h 0.870803v -6.10679h 0.870803v -4.07119h 0.870803v 5.08899h 0.870803v -4.07119h 0.870803v 2.0356h 0.870803v -6.10679h 0.870803v 5.08899h 0.870803v 4.07119h
 0.870803v -5.08899h 1.74161v -7.12458h 0.870803v 1.0178h 0.870803v -8.14238h 0.870803v 5.08899h 0.870803v -13.2314h 0.870803v -1.0178h 0.870803v 12.2136h 0.870803v -18.3204h 0.870803v 2.0356h 0.870803v 3.05339h 0.870803v -3.05339h 0.870803v -10.178h
 1.74161v -5.08899h 1.74161v -11.1958h 0.870803v -3.05339h 0.870803v -2.0356h 0.870803v -20.356h 0.870803v 14.2492h 0.870803v -3.05339h 0.870803v -16.2848h 0.870803v -1.0178h 0.870803v -5.08899h 0.870803v -28.4983h 0.870803v -17.3026h 0.870803v
 27.4805h 0.870803v -8.14238h 0.870803v -19.3382h 0.870803v 26.4627h 0.870803v -7.12458h 0.870803v 30.5339h 1.74161v 23.4093h 0.870803v 23.4093h 0.870803v 11.1958h 0.870803v 11.1958h 0.870803v 18.3204h 0.870803v 8.14238h 0.870803v 5.08899h 0.870803v
 1.0178h 0.870803v -1.0178h 0.870803v -2.0356h 0.870803v 4.07119h 0.870803v -1.0178h 0.870803v 2.0356h 1.74161v -3.05339h 0.870803v -1.0178h 0.870803v 2.0356h 0.870803v -1.0178h 0.870803v 1.0178h 0.870803v 2.0356h 0.870803v -3.05339h 0.870803v
 3.05339h 3.48321v -1.0178h 0.870803v 1.0178h 22.6409z" fill="#0000ff"/>
<path d="M33.3819,194.591h 4.35402v -1.0178h 0.870803v 1.0178h 4.35402v -1.0178h 0.870803v 1.0178h 7.83723v -1.0178h 0.870803v 1.0178h 4.35402v -1.0178h 0.870803v -1.0178h 0.870803v 2.0356h 2.61241v -1.0178h 0.870803v 1.0178h 1.74161v -1.0178h
 0.870803v 1.0178h 0.870803v -1.0178h 0.870803v -1.0178h 0.870803v 2.0356h 0.870803v -1.0178h 0.870803v 1.0178h 0.870803v -1.0178h 1.74161v 1.0178h 0.870803v -2.0356h 0.870803v 1.0178h 1.74161v -2.0356h 0.870803v 3.05339h 0.870803v -1.0178h 2.61241v
 -1.0178h 0.870803v 2.0356h 1.74161v -2.0356h 0.870803v 2.0356h 1.74161v -1.0178h 0.870803v -2.0356h 0.870803v 2.0356h 1.74161v 1.0178h 0.870803v -2.0356h 0.870803v 2.0356h 0.870803v -3.05339h 0.870803v 2.0356h 0.870803v -1.0178h 1.74161v 1.0178h
 0.870803v 1.0178h 2.61241v -1.0178h 0.870803v -2.0356h 0.870803v 2.0356h 0.870803v 1.0178h 0.870803v -1.0178h 0.870803v -1.0178h 0.870803v 1.0178h 0.870803v -1.0178h 0.870803v 1.0178h 0.870803v 1.0178h 0.870803v -4.07119h 0.870803v 1.0178h 2.61241v
 2.0356h 0.870803v 1.0178h 0.870803v -1.0178h 1.74161v 1.0178h 0.870803v -2.0356h 2.61241v 1.0178h 0.870803v -2.0356h 0.870803v 3.05339h 0.870803v -2.0356h 0.870803v 1.0178h 0.870803v -2.0356h 0.870803v -1.0178h 0.870803v 2.0356h 0.870803v -1.0178h
 0.870803v 1.0178h 0.870803v -4.07119h 1.74161v 5.08899h 2.61241v -2.0356h 0.870803v 3.05339h 0.870803v -3.05339h 0.870803v -3.05339h 0.870803v 2.0356h 0.870803v 2.0356h 0.870803v -5.08899h 0.870803v 2.0356h 0.870803v 1.0178h 1.74161v 2.0356h
 0.870803v -1.0178h 0.870803v 1.0178h 0.870803v -2.0356h 0.870803v -1.0178h 0.870803v 2.0356h 0.870803v -4.07119h 0.870803v 2.0356h 0.870803v 2.0356h 0.870803v -3.05339h 0.870803v 1.0178h 0.870803v -3.05339h 0.870803v 3.05339h 0.870803v 1.0178h
 0.870803v 2.0356h 0.870803v -5.08899h 0.870803v -1.0178h 0.870803v 3.05339h 0.870803v -2.0356h 1.74161v -1.0178h 0.870803v 6.10679h 0.870803v -9.16018h 0.870803v 1.0178h 0.870803v 2.0356h 0.870803v -1.0178h 0.870803v -2.0356h 0.870803v 4.07119h
 0.870803v -5.08899h 0.870803v 2.0356h 0.870803v -2.0356h 0.870803v -5.08899h 1.74161v 9.16018h 0.870803v -6.10679h 0.870803v -4.07119h 0.870803v 5.08899h 0.870803v -4.07119h 0.870803v 2.0356h 0.870803v -6.10679h 0.870803v 5.08899h 0.870803v 4.07119h
 0.870803v -5.08899h 1.74161v -7.12458h 0.870803v 1.0178h 0.870803v -8.14238h 0.870803v 5.08899h 0.870803v -13.2314h 0.870803v -1.0178h 0.870803v 12.2136h 0.870803v -18.3204h 0.870803v 2.0356h 0.870803v 3.05339h 0.870803v -3.05339h 0.870803v -10.178h
 1.74161v -5.08899h 1.74161v -11.1958h 0.870803v -3.05339h 0.870803v -2.0356h 0.870803v -20.356h 0.870803v 14.2492h 0.870803v -3.05339h 0.870803v -16.2848h 0.870803v -1.0178h 0.870803v -5.08899h 0.870803v -28.4983h 0.870803v -17.3026h 0.870803v
 27.4805h 0.870803v -8.14238h 0.870803v -19.3382h 0.870803v 26.4627h 0.870803v -7.12458h 0.870803v 30.5339h 1.74161v 23.4093h 0.870803v 23.4093h 0.870803v 11.1958h 0.870803v 11.1958h 0.870803v 18.3204h 0.870803v 8.14238h 0.870803v 5.08899h 0.870803v
 1.0178h 0.870803v -1.0178h 0.870803v -2.0356h 0.870803v 4.07119h 0.870803v -1.0178h 0.870803v 2.0356h 1.74161v -3.05339h 0.870803v -1.0178h 0.870803v 2.0356h 0.870803v -1.0178h 0.870803v 1.0178h 0.870803v 2.0356h 0.870803v -3.05339h 0.870803v
 3.05339h 3.48321v -1.0178h 0.870803v 1.0178h 22.6409" fill="none" stroke="#0000ff"/>
<path d="M33.3819,194.591h 217.701" fill="none" stroke="black"/>
<path d="M33.3819,189.519v 5.07169" fill="none" stroke="black"/>
<path d="M37.7359,192.055v 2.53584" fill="none" stroke="black"/>
<path d="M42.0899,192.055v 2.53584" fill="none" stroke="black"/>
<path d="M46.4439,192.055v 2.53584" fill="none" stroke="black"/>
<path d="M50.798,192.055v 2.53584" fill="none" stroke="black"/>
<path d="M55.152,189.519v 5.07169" fill="none" stroke="black"/>
<path d="M59.506,192.055v 2.53584" fill="none" stroke="black"/>
<path d="M63.86,192.055v 2.53584" fill="none" stroke="black"/>
<path d="M68.214,192.055v 2.53584" fill="none" stroke="black"/>
<path d="M72.568,192.055v 2.53584" fill="none" stroke="black"/>
<path d="M76.9221,189.519v 5.07169" fill="none" stroke="black"/>
<path d="M81.2761,192.055v 2.53584" fill="none" stroke="black"/>
<path d="M85.6301,192.055v 2.53584" fill="none" stroke="black"/>
<path d="M89.9841,192.055v 2.53584" fill="none" stroke="black"/>
<path d="M94.3381,192.055v 2.53584" fill="none" stroke="black"/>
<path d="M98.6921,189.519v 5.07169" fill="none" stroke="black"/>
<path d="M103.046,192.055v 2.53584" fill="none" stroke="black"/>
<path d="M107.4,192.055v 2.53584" fill="none" stroke="black"/>
<path d="M111.754,192.055v 2.53584" fill="none" stroke="black"/>
<path d="M116.108,192.055v 2.53584" fill="none" stroke="black"/>
<path d="M120.462,189.519v 5.07169" fill="none" stroke="black"/>
<path d="M124.816,192.055v 2.53584" fill="none" stroke="black"/>
<path d="M129.17,192.055v 2.53584" fill="none" stroke="black"/>
<path d="M133.524,192.055v 2.53584" fill="none" stroke="black"/>
<path d="M137.878,192.055v 2.53584" fill="none" stroke="black"/>
<path d="M142.232,189.519v 5.07169" fill="none" stroke="black"/>
<path d="M146.586,192.055v 2.53584" fill="none" stroke="black"/>
<path d="M150.94,192.055v 2.53584" fill="none" stroke="black"/>
<path d="M155.294,192.055v 2.53584" fill="none" stroke="black"/>
<path d="M159.648,192.055v 2.53584" fill="none" stroke="black"/>
<path d="M164.002,189.519v 5.07169" fill="none" stroke="black"/>
<path d="M168.356,192.055v 2.53584" fill="none" stroke="black"/>
<path d="M172.71,192.055v 2.53584" fill="none" stroke="black"/>
<path d="M177.064,192.055v 2.53584" fill="none" stroke="black"/>
<path d="M181.418,192.055v 2.53584" fill="none" stroke="black"/>
<path d="M185.772,189.519v 5.07169" fill="none" stroke="black"/>
<path d="M190.126,192.055v 2.53584" fill="none" stroke="black"/>
<path d="M194.48,192.055v 2.53584" fill="none" stroke="black"/>
<path d="M198.834,192.055v 2.53584" fill="none" stroke="black"/>
<path d="M203.189,192.055v 2.53584" fill="none" stroke="black"/>
<path d="M207.543,189.519v 5.07169" fill="none" stroke="black"/>
<path d="M211.897,192.055v 2.53584" fill="none" stroke="black"/>
<path d="M216.251,192.055v 2.53584" fill="none" stroke="black"/>
<path d="M220.605,192.055v 2.53584" fill="none" stroke="black"/>
<path d="M224.959,192.055v 2.53584" fill="none" stroke="black"/>
<path d="M229.313,189.519v 5.07169" fill="none" stroke="black"/>
<path d="M233.667,192.055v 2.53584" fill="none" stroke="black"/>
<path d="M238.021,192.055v 2.53584" fill="none" stroke="black"/>
<path d="M242.375,192.055v 2.53584" fill="none" stroke="black"/>
<path d="M246.729,192.055v 2.53584" fill="none" stroke="black"/>
<path d="M251.083,189.519v 5.07169" fill="none" stroke="black"/>
<text xml:space="preserve" x="23.2226" y="201.095" fill="black" font-size="7.28551" font-family="Helvetica">23000</text>
<text xml:space="preserve" x="45.3772" y="201.095" fill="black" font-size="7.28551" font-family="Helvetica">23500</text>
<text xml:space="preserve" x="66.9636" y="201.095" fill="black" font-size="7.28551" font-family="Helvetica">24000</text>
<text xml:space="preserve" x="88.5501" y="201.095" fill="black" font-size="7.28551" font-family="Helvetica">24500</text>
<text xml:space="preserve" x="110.705" y="201.095" fill="black" font-size="7.28551" font-family="Helvetica">25000</text>
<text xml:space="preserve" x="132.291" y="201.095" fill="black" font-size="7.28551" font-family="Helvetica">25500</text>
<text xml:space="preserve" x="153.878" y="201.095" fill="black" font-size="7.28551" font-family="Helvetica">26000</text>
<text xml:space="preserve" x="176.032" y="201.095" fill="black" font-size="7.28551" font-family="Helvetica">26500</text>
<text xml:space="preserve" x="197.619" y="201.095" fill="black" font-size="7.28551" font-family="Helvetica">27000</text>
<text xml:space="preserve" x="219.205" y="201.095" fill="black" font-size="7.28551" font-family="Helvetica">27500</text>
<text xml:space="preserve" x="241.36" y="201.095" fill="black" font-size="7.28551" font-family="Helvetica">28000</text>
<path d="M33.3819,194.591v -169.056" fill="none" stroke="black"/>
<path d="M39.9129,194.591h -6.53102" fill="none" stroke="black"/>
<path d="M36.6474,189.502h -3.26551" fill="none" stroke="black"/>
<path d="M36.6474,184.413h -3.26551" fill="none" stroke="black"/>
<path d="M36.6474,179.324h -3.26551" fill="none" stroke="black"/>
<path d="M39.9129,174.235h -6.53102" fill="none" stroke="black"/>
<path d="M36.6474,169.146h -3.26551" fill="none" stroke="black"/>
<path d="M36.6474,164.057h -3.26551" fill="none" stroke="black"/>
<path d="M36.6474,158.968h -3.26551" fill="none" stroke="black"/>
<path d="M39.9129,153.879h -6.53102" fill="none" stroke="black"/>
<path d="M36.6474,148.79h -3.26551" fill="none" stroke="black"/>
<path d="M36.6474,143.701h -3.26551" fill="none" stroke="black"/>
<path d="M36.6474,138.612h -3.26551" fill="none" stroke="black"/>
<path d="M39.9129,133.523h -6.53102" fill="none" stroke="black"/>
<path d="M36.6474,128.434h -3.26551" fill="none" stroke="black"/>
<path d="M36.6474,123.345h -3.26551" fill="none" stroke="black"/>
<path d="M36.6474,118.256h -3.26551" fill="none" stroke="black"/>
<path d="M39.9129,113.167h -6.53102" fill="none" stroke="black"/>
<path d="M36.6474,108.078h -3.26551" fill="none" stroke="black"/>
<path d="M36.6474,102.989h -3.26551" fill="none" stroke="black"/>
<path d="M36.6474,97.9h -3.26551" fill="none" stroke="black"/>
<path d="M39.9129,92.811h -6.53102" fill="none" stroke="black"/>
<path d="M36.6474,87.722h -3.26551" fill="none" stroke="black"/>
<path d="M36.6474,82.633h -3.26551" fill="none" stroke="black"/>
<path d="M36.6474,77.544h -3.26551" fill="none" stroke="black"/>
<path d="M39.9129,72.455h -6.53102" fill="none" stroke="black"/>
<path d="M36.6474,67.366h -3.26551" fill="none" stroke="black"/>
<path d="M36.6474,62.277h -3.26551" fill="none" stroke="black"/>
<path d="M36.6474,57.188h -3.26551" fill="none" stroke="black"/>
<path d="M39.9129,52.0991h -6.53102" fill="none" stroke="black"/>
<path d="M36.6474,47.0101h -3.26551" fill="none" stroke="black"/>
<path d="M36.6474,41.9211h -3.26551" fill="none" stroke="black"/>
<path d="M36.6474,36.8321h -3.26551" fill="none" stroke="black"/>
<path d="M39.9129,31.7431h -6.53102" fill="none" stroke="black"/>
<path d="M39.9129,31.7431h -6.53102" fill="none" stroke="black"/>
<path d="M36.6474,26.6541h -3.26551" fill="none" stroke="black"/>
<text xml:space="preserve" x="27.7671" y="197.119" fill="black" font-size="7.28551" font-family="Helvetica">0</text>
<text xml:space="preserve" x="24.3587" y="176.668" fill="black" font-size="7.28551" font-family="Helvetica">20</text>
<text xml:space="preserve" x="24.3587" y="156.218" fill="black" font-size="7.28551" font-family="Helvetica">40</text>
<text xml:space="preserve" x="24.3587" y="136.336" fill="black" font-size="7.28551" font-family="Helvetica">60</text>
<text xml:space="preserve" x="24.3587" y="115.885" fill="black" font-size="7.28551" font-family="Helvetica">80</text>
<text xml:space="preserve" x="20.3823" y="95.435" fill="black" font-size="7.28551" font-family="Helvetica">100</text>
<text xml:space="preserve" x="20.3823" y="74.9846" fill="black" font-size="7.28551" font-family="Helvetica">120</text>
<text xml:space="preserve" x="20.3823" y="54.5343" fill="black" font-size="7.28551" font-family="Helvetica">140</text>
<text xml:space="preserve" x="20.3823" y="34.0839" fill="black" font-size="7.28551" font-family="Helvetica">160</text>
<g transform="rotate(-90,14.7016,46.5814)">
<text xml:space="preserve" x="14.7016" y="46.5814" fill="black" font-size="7.28551" font-family="Helvetica">Counts</text>
</g>
<text xml:space="preserve" x="59.5788" y="15.3378" fill="black" font-size="10.6001" font-family="Helvetica">Charge Distribution RPC1_1 6700 V</text>
<rect x="218.428" y="18.1383" width="54.4252" height="33.8112" fill="white"/>
<path d="M218.428,51.9496h 54.4252" fill="none" stroke="black"/>
<path d="M272.853,51.9496v -33.8112" fill="none" stroke="black"/>
<path d="M272.853,18.1383h -54.4252" fill="none" stroke="black"/>
<path d="M218.428,18.1383v 33.8112" fill="none" stroke="black"/>
<text xml:space="preserve" x="239.655" y="24.9949" fill="black" font-size="7.63448" font-family="Helvetica">hc1</text>
<path d="M218.428,26.5911h 54.4252" fill="none" stroke="black"/>
<text xml:space="preserve" x="220.909" y="32.9478" fill="black" font-size="6.00967" font-family="Helvetica">Entries </text>
<text xml:space="preserve" x="255.561" y="32.9478" fill="black" font-size="6.00967" font-family="Helvetica"> 3459</text>
<text xml:space="preserve" x="220.909" y="41.4688" fill="black" font-size="6.00967" font-family="Helvetica">Mean  </text>
<text xml:space="preserve" x="241.36" y="41.4688" fill="black" font-size="6.00967" font-family="Helvetica"> 2.657e+04</text>
<text xml:space="preserve" x="220.909" y="49.9897" fill="black" font-size="6.00967" font-family="Helvetica">Std Dev   </text>
<text xml:space="preserve" x="252.153" y="49.9897" fill="black" font-size="6.00967" font-family="Helvetica">  517.6</text>
<text xml:space="preserve" x="59.5788" y="15.3378" fill="black" font-size="10.6001" font-family="Helvetica">Charge Distribution RPC1_1 6700 V</text>
<rect x="289.634" y="4.40251" width="272.126" height="211.32" fill="white"/>
<rect x="316.846" y="25.5345" width="217.701" height="169.056" fill="white"/>
<rect x="316.846" y="25.5345" width="217.701" height="169.056" fill="none" stroke="black"/>
<path d="M316.846,194.591h 2.61241v -7.31845h 0.870803v 7.31845h 47.0234v -14.6369h 0.870803v 14.6369h 6.96642v -7.31845h 0.870803v 7.31845h 9.57883v -7.31845h 0.870803v 7.31845h 5.22482v -7.31845h 1.74161v 7.31845h 18.2869v -14.6369h 0.870803v
 14.6369h 5.22482v -7.31845h 0.870803v 7.31845h 5.22482v -21.9554h 0.870803v 21.9554h 4.35402v -7.31845h 0.870803v 7.31845h 3.48321v -14.6369h 0.870803v 14.6369h 0.870803v -7.31845h 1.74161v 7.31845h 4.35402v -7.31845h 0.870803v 7.31845h 3.48321v
 -7.31845h 0.870803v -7.31845h 0.870803v 14.6369h 2.61241v -7.31845h 0.870803v 7.31845h 4.35402v -7.31845h 1.74161v -14.6369h 1.74161v 7.31845h 0.870803v 14.6369h 0.870803v -14.6369h 0.870803v 14.6369h 1.74161v -7.31845h 4.35402v 7.31845h 0.870803v
 -7.31845h 0.870803v 7.31845h 0.870803v -7.31845h 0.870803v -7.31845h 1.74161v 7.31845h 0.870803v 7.31845h 0.870803v -14.6369h 0.870803v 14.6369h 0.870803v -14.6369h 0.870803v -7.31845h 0.870803v 7.31845h 0.870803v -21.9554h 0.870803v 29.2738h
 1.74161v -21.9554h 1.74161v -7.31845h 0.870803v 7.31845h 0.870803v -7.31845h 0.870803v 14.6369h 0.870803v -7.31845h 0.870803v -7.31845h 1.74161v -7.31845h 0.870803v -7.31845h 0.870803v -29.2738h 0.870803v 14.6369h 0.870803v 21.9554h 0.870803v
 -87.8214h 0.870803v 65.8661h 0.870803v -58.5476h 0.870803v -29.2738h 0.870803v 7.31845h 0.870803v -7.31845h 0.870803v 21.9554h 0.870803v 7.31845h 0.870803v 87.8214h 0.870803v 7.31845h 1.74161v 21.9554h 0.870803v 7.31845h 0.870803v -7.31845h
 0.870803v 7.31845h 28.7365z" fill="#0000ff"/>
<path d="M316.846,194.591h 2.61241v -7.31845h 0.870803v 7.31845h 47.0234v -14.6369h 0.870803v 14.6369h 6.96642v -7.31845h 0.870803v 7.31845h 9.57883v -7.31845h 0.870803v 7.31845h 5.22482v -7.31845h 1.74161v 7.31845h 18.2869v -14.6369h 0.870803v
 14.6369h 5.22482v -7.31845h 0.870803v 7.31845h 5.22482v -21.9554h 0.870803v 21.9554h 4.35402v -7.31845h 0.870803v 7.31845h 3.48321v -14.6369h 0.870803v 14.6369h 0.870803v -7.31845h 1.74161v 7.31845h 4.35402v -7.31845h 0.870803v 7.31845h 3.48321v
 -7.31845h 0.870803v -7.31845h 0.870803v 14.6369h 2.61241v -7.31845h 0.870803v 7.31845h 4.35402v -7.31845h 1.74161v -14.6369h 1.74161v 7.31845h 0.870803v 14.6369h 0.870803v -14.6369h 0.870803v 14.6369h 1.74161v -7.31845h 4.35402v 7.31845h 0.870803v
 -7.31845h 0.870803v 7.31845h 0.870803v -7.31845h 0.870803v -7.31845h 1.74161v 7.31845h 0.870803v 7.31845h 0.870803v -14.6369h 0.870803v 14.6369h 0.870803v -14.6369h 0.870803v -7.31845h 0.870803v 7.31845h 0.870803v -21.9554h 0.870803v 29.2738h
 1.74161v -21.9554h 1.74161v -7.31845h 0.870803v 7.31845h 0.870803v -7.31845h 0.870803v 14.6369h 0.870803v -7.31845h 0.870803v -7.31845h 1.74161v -7.31845h 0.870803v -7.31845h 0.870803v -29.2738h 0.870803v 14.6369h 0.870803v 21.9554h 0.870803v
 -87.8214h 0.870803v 65.8661h 0.870803v -58.5476h 0.870803v -29.2738h 0.870803v 7.31845h 0.870803v -7.31845h 0.870803v 21.9554h 0.870803v 7.31845h 0.870803v 87.8214h 0.870803v 7.31845h 1.74161v 21.9554h 0.870803v 7.31845h 0.870803v -7.31845h
 0.870803v 7.31845h 28.7365" fill="none" stroke="#0000ff"/>
<path d="M316.846,194.591h 217.701" fill="none" stroke="black"/>
<path d="M316.846,189.519v 5.07169" fill="none" stroke="black"/>
<path d="M321.2,192.055v 2.53584" fill="none" stroke="black"/>
<path d="M325.555,192.055v 2.53584" fill="none" stroke="black"/>
<path d="M329.909,192.055v 2.53584" fill="none" stroke="black"/>
<path d="M334.263,192.055v 2.53584" fill="none" stroke="black"/>
<path d="M338.617,189.519v 5.07169" fill="none" stroke="black"/>
<path d="M342.971,192.055v 2.53584" fill="none" stroke="black"/>
<path d="M347.325,192.055v 2.53584" fill="none" stroke="black"/>
<path d="M351.679,192.055v 2.53584" fill="none" stroke="black"/>
<path d="M356.033,192.055v 2.53584" fill="none" stroke="black"/>
<path d="M360.387,189.519v 5.07169" fill="none" stroke="black"/>
<path d="M364.741,192.055v 2.53584" fill="none" stroke="black"/>
<path d="M369.095,192.055v 2.53584" fill="none" stroke="black"/>
<path d="M373.449,192.055v 2.53584" fill="none" stroke="black"/>
<path d="M377.803,192.055v 2.53584" fill="none" stroke="black"/>
<path d="M382.157,189.519v 5.07169" fill="none" stroke="black"/>
<path d="M386.511,192.055v 2.53584" fill="none" stroke="black"/>
<path d="M390.865,192.055v 2.53584" fill="none" stroke="black"/>
<path d="M395.219,192.055v 2.53584" fill="none" stroke="black"/>
<path d="M399.573,192.055v 2.53584" fill="none" stroke="black"/>
<path d="M403.927,189.519v 5.07169" fill="none" stroke="black"/>
<path d="M408.281,192.055v 2.53584" fill="none" stroke="black"/>
<path d="M412.635,192.055v 2.53584" fill="none" stroke="black"/>
<path d="M416.989,192.055v 2.53584" fill="none" stroke="black"/>
<path d="M421.343,192.055v 2.53584" fill="none" stroke="black"/>
<path d="M425.697,189.519v 5.07169" fill="none" stroke="black"/>
<path d="M430.051,192.055v 2.53584" fill="none" stroke="black"/>
<path d="M434.405,192.055v 2.53584" fill="none" stroke="black"/>
<path d="M438.759,192.055v 2.53584" fill="none" stroke="black"/>
<path d="M443.113,192.055v 2.53584" fill="none" stroke="black"/>
<path d="M447.467,189.519v 5.07169" fill="none" stroke="black"/>
<path d="M451.821,192.055v 2.53584" fill="none" stroke="black"/>
<path d="M456.175,192.055v 2.53584" fill="none" stroke="black"/>
<path d="M460.529,192.055v 2.53584" fill="none" stroke="black"/>
<path d="M464.883,192.055v 2.53584" fill="none" stroke="black"/>
<path d="M469.237,189.519v 5.07169" fill="none" stroke="black"/>
<path d="M473.591,192.055v 2.53584" fill="none" stroke="black"/>
<path d="M477.945,192.055v 2.53584" fill="none" stroke="black"/>
<path d="M482.299,192.055v 2.53584" fill="none" stroke="black"/>
<path d="M486.653,192.055v 2.53584" fill="none" stroke="black"/>
<path d="M491.007,189.519v 5.07169" fill="none" stroke="black"/>
<path d="M495.361,192.055v 2.53584" fill="none" stroke="black"/>
<path d="M499.715,192.055v 2.53584" fill="none" stroke="black"/>
<path d="M504.069,192.055v 2.53584" fill="none" stroke="black"/>
<path d="M508.423,192.055v 2.53584" fill="none" stroke="black"/>
<path d="M512.777,189.519v 5.07169" fill="none" stroke="black"/>
<path d="M517.131,192.055v 2.53584" fill="none" stroke="black"/>
<path d="M521.485,192.055v 2.53584" fill="none" stroke="black"/>
<path d="M525.839,192.055v 2.53584" fill="none" stroke="black"/>
<path d="M530.193,192.055v 2.53584" fill="none" stroke="black"/>
<path d="M534.547,189.519v 5.07169" fill="none" stroke="black"/>
<text xml:space="preserve" x="306.687" y="201.095" fill="black" font-size="7.28551" font-family="Helvetica">23000</text>
<text xml:space="preserve" x="328.842" y="201.095" fill="black" font-size="7.28551" font-family="Helvetica">23500</text>
<text xml:space="preserve" x="350.428" y="201.095" fill="black" font-size="7.28551" font-family="Helvetica">24000</text>
<text xml:space="preserve" x="372.015" y="201.095" fill="black" font-size="7.28551" font-family="Helvetica">24500</text>
<text xml:space="preserve" x="394.169" y="201.095" fill="black" font-size="7.28551" font-family="Helvetica">25000</text>
<text xml:space="preserve" x="415.756" y="201.095" fill="black" font-size="7.28551" font-family="Helvetica">25500</text>
<text xml:space="preserve" x="437.342" y="201.095" fill="black" font-size="7.28551" font-family="Helvetica">26000</text>
<text xml:space="preserve" x="459.497" y="201.095" fill="black" font-size="7.28551" font-family="Helvetica">26500</text>
<text xml:space="preserve" x="481.083" y="201.095" fill="black" font-size="7.28551" font-family="Helvetica">27000</text>
<text xml:space="preserve" x="502.67" y="201.095" fill="black" font-size="7.28551" font-family="Helvetica">27500</text>
<text xml:space="preserve" x="524.824" y="201.095" fill="black" font-size="7.28551" font-family="Helvetica">28000</text>
<path d="M316.846,194.591v -169.056" fill="none" stroke="black"/>
<path d="M323.377,194.591h -6.53102" fill="none" stroke="black"/>
<path d="M320.112,190.932h -3.26551" fill="none" stroke="black"/>
<path d="M320.112,187.272h -3.26551" fill="none" stroke="black"/>
<path d="M320.112,183.613h -3.26551" fill="none" stroke="black"/>
<path d="M323.377,179.954h -6.53102" fill="none" stroke="black"/>
<path d="M320.112,176.295h -3.26551" fill="none" stroke="black"/>
<path d="M320.112,172.635h -3.26551" fill="none" stroke="black"/>
<path d="M320.112,168.976h -3.26551" fill="none" stroke="black"/>
<path d="M323.377,165.317h -6.53102" fill="none" stroke="black"/>
<path d="M320.112,161.658h -3.26551" fill="none" stroke="black"/>
<path d="M320.112,157.999h -3.26551" fill="none" stroke="black"/>
<path d="M320.112,154.339h -3.26551" fill="none" stroke="black"/>
<path d="M323.377,150.68h -6.53102" fill="none" stroke="black"/>
<path d="M320.112,147.021h -3.26551" fill="none" stroke="black"/>
<path d="M320.112,143.362h -3.26551" fill="none" stroke="black"/>
<path d="M320.112,139.702h -3.26551" fill="none" stroke="black"/>
<path d="M323.377,136.043h -6.53102" fill="none" stroke="black"/>
<path d="M320.112,132.384h -3.26551" fill="none" stroke="black"/>
<path d="M320.112,128.725h -3.26551" fill="none" stroke="black"/>
<path d="M320.112,125.065h -3.26551" fill="none" stroke="black"/>
<path d="M323.377,121.406h -6.53102" fill="none" stroke="black"/>
<path d="M320.112,117.747h -3.26551" fill="none" stroke="black"/>
<path d="M320.112,114.088h -3.26551" fill="none" stroke="black"/>
<path d="M320.112,110.429h -3.26551" fill="none" stroke="black"/>
<path d="M323.377,106.769h -6.53102" fill="none" stroke="black"/>
<path d="M320.112,103.11h -3.26551" fill="none" stroke="black"/>
<path d="M320.112,99.4509h -3.26551" fill="none" stroke="black"/>
<path d="M320.112,95.7917h -3.26551" fill="none" stroke="black"/>
<path d="M323.377,92.1324h -6.53102" fill="none" stroke="black"/>
<path d="M320.112,88.4732h -3.26551" fill="none" stroke="black"/>
<path d="M320.112,84.814h -3.26551" fill="none" stroke="black"/>
<path d="M320.112,81.1548h -3.26551" fill="none" stroke="black"/>
<path d="M323.377,77.4955h -6.53102" fill="none" stroke="black"/>
<path d="M320.112,73.8363h -3.26551" fill="none" stroke="black"/>
<path d="M320.112,70.1771h -3.26551" fill="none" stroke="black"/>
<path d="M320.112,66.5179h -3.26551" fill="none" stroke="black"/>
<path d="M323.377,62.8586h -6.53102" fill="none" stroke="black"/>
<path d="M320.112,59.1994h -3.26551" fill="none" stroke="black"/>
<path d="M320.112,55.5402h -3.26551" fill="none" stroke="black"/>
<path d="M320.112,51.881h -3.26551" fill="none" stroke="black"/>
<path d="M323.377,48.2217h -6.53102" fill="none" stroke="black"/>
<path d="M320.112,44.5625h -3.26551" fill="none" stroke="black"/>
<path d="M320.112,40.9033h -3.26551" fill="none" stroke="black"/>
<path d="M320.112,37.2441h -3.26551" fill="none" stroke="black"/>
<path d="M323.377,33.5848h -6.53102" fill="none" stroke="black"/>
<path d="M323.377,33.5848h -6.53102" fill="none" stroke="black"/>
<path d="M320.112,29.9256h -3.26551" fill="none" stroke="black"/>
<path d="M320.112,26.2664h -3.26551" fill="none" stroke="black"/>
<text xml:space="preserve" x="311.232" y="197.119" fill="black" font-size="7.28551" font-family="Helvetica">0</text>
<text xml:space="preserve" x="311.232" y="182.349" fill="black" font-size="7.28551" font-family="Helvetica">2</text>
<text xml:space="preserve" x="311.232" y="168.147" fill="black" font-size="7.28551" font-family="Helvetica">4</text>
<text xml:space="preserve" x="311.232" y="153.378" fill="black" font-size="7.28551" font-family="Helvetica">6</text>
<text xml:space="preserve" x="311.232" y="138.608" fill="black" font-size="7.28551" font-family="Helvetica">8</text>
<text xml:space="preserve" x="307.823" y="123.838" fill="black" font-size="7.28551" font-family="Helvetica">10</text>
<text xml:space="preserve" x="307.823" y="109.069" fill="black" font-size="7.28551" font-family="Helvetica">12</text>
<text xml:space="preserve" x="307.823" y="94.8669" fill="black" font-size="7.28551" font-family="Helvetica">14</text>
<text xml:space="preserve" x="307.823" y="80.0972" fill="black" font-size="7.28551" font-family="Helvetica">16</text>
<text xml:space="preserve" x="307.823" y="65.3275" fill="black" font-size="7.28551" font-family="Helvetica">18</text>
<text xml:space="preserve" x="307.823" y="50.5578" fill="black" font-size="7.28551" font-family="Helvetica">20</text>
<text xml:space="preserve" x="307.823" y="36.3562" fill="black" font-size="7.28551" font-family="Helvetica">22</text>
<g transform="rotate(-90,302.711,46.5814)">
<text xml:space="preserve" x="302.711" y="46.5814" fill="black" font-size="7.28551" font-family="Helvetica">Counts</text>
</g>
<text xml:space="preserve" x="343.043" y="15.3378" fill="black" font-size="10.6001" font-family="Helvetica">Charge Distribution RPC1_2 6700 V</text>
<rect x="501.892" y="18.1383" width="54.4252" height="33.8112" fill="white"/>
<path d="M501.892,51.9496h 54.4252" fill="none" stroke="black"/>
<path d="M556.317,51.9496v -33.8112" fill="none" stroke="black"/>
<path d="M556.317,18.1383h -54.4252" fill="none" stroke="black"/>
<path d="M501.892,18.1383v 33.8112" fill="none" stroke="black"/>
<text xml:space="preserve" x="522.552" y="24.9949" fill="black" font-size="7.63448" font-family="Helvetica">hc2</text>
<path d="M501.892,26.5911h 54.4252" fill="none" stroke="black"/>
<text xml:space="preserve" x="504.374" y="32.9478" fill="black" font-size="6.00967" font-family="Helvetica">Entries </text>
<text xml:space="preserve" x="542.434" y="32.9478" fill="black" font-size="6.00967" font-family="Helvetica"> 323</text>
<text xml:space="preserve" x="504.374" y="41.4688" fill="black" font-size="6.00967" font-family="Helvetica">Mean  </text>
<text xml:space="preserve" x="524.824" y="41.4688" fill="black" font-size="6.00967" font-family="Helvetica"> 2.686e+04</text>
<text xml:space="preserve" x="504.374" y="49.9897" fill="black" font-size="6.00967" font-family="Helvetica">Std Dev   </text>
<text xml:space="preserve" x="535.617" y="49.9897" fill="black" font-size="6.00967" font-family="Helvetica">  566.9</text>
<text xml:space="preserve" x="343.043" y="15.3378" fill="black" font-size="10.6001" font-family="Helvetica">Charge Distribution RPC1_2 6700 V</text>
<rect x="6.16929" y="224.528" width="272.126" height="211.32" fill="white"/>
<rect x="33.3819" y="245.66" width="217.701" height="169.056" fill="white"/>
<rect x="33.3819" y="245.66" width="217.701" height="169.056" fill="none" stroke="black"/>
<path d="M33.3819,414.716h 183.739v -0.113725h 0.870803v -3.07057h 0.870803v -4.61722h 0.870803v -2.18351h 0.870803v -3.09331h 0.870803v -3.11606h 0.870803v -2.27449h 0.870803v -4.73094h 0.870803v -1.86508h 0.870803v 0.295684h 0.870803v -0.386664h
 0.870803v -13.9426h 0.870803v -114.589h 0.870803v 55.4976h 0.870803v 95.3467h 0.870803v 2.84312h 20.8993z" fill="#0000ff"/>
<path d="M33.3819,414.716h 183.739v -0.113725h 0.870803v -3.07057h 0.870803v -4.61722h 0.870803v -2.18351h 0.870803v -3.09331h 0.870803v -3.11606h 0.870803v -2.27449h 0.870803v -4.73094h 0.870803v -1.86508h 0.870803v 0.295684h 0.870803v -0.386664h
 0.870803v -13.9426h 0.870803v -114.589h 0.870803v 55.4976h 0.870803v 95.3467h 0.870803v 2.84312h 20.8993" fill="none" stroke="#0000ff"/>
<path d="M33.3819,414.716h 217.701" fill="none" stroke="black"/>
<path d="M33.3819,409.644v 5.07169" fill="none" stroke="black"/>
<path d="M37.7359,412.18v 2.53584" fill="none" stroke="black"/>
<path d="M42.0899,412.18v 2.53584" fill="none" stroke="black"/>
<path d="M46.4439,412.18v 2.53584" fill="none" stroke="black"/>
<path d="M50.798,412.18v 2.53584" fill="none" stroke="black"/>
<path d="M55.152,409.644v 5.07169" fill="none" stroke="black"/>
<path d="M59.506,412.18v 2.53584" fill="none" stroke="black"/>
<path d="M63.86,412.18v 2.53584" fill="none" stroke="black"/>
<path d="M68.214,412.18v 2.53584" fill="none" stroke="black"/>
<path d="M72.568,412.18v 2.53584" fill="none" stroke="black"/>
<path d="M76.9221,409.644v 5.07169" fill="none" stroke="black"/>
<path d="M81.2761,412.18v 2.53584" fill="none" stroke="black"/>
<path d="M85.6301,412.18v 2.53584" fill="none" stroke="black"/>
<path d="M89.9841,412.18v 2.53584" fill="none" stroke="black"/>
<path d="M94.3381,412.18v 2.53584" fill="none" stroke="black"/>
<path d="M98.6921,409.644v 5.07169" fill="none" stroke="black"/>
<path d="M103.046,412.18v 2.53584" fill="none" stroke="black"/>
<path d="M107.4,412.18v 2.53584" fill="none" stroke="black"/>
<path d="M111.754,412.18v 2.53584" fill="none" stroke="black"/>
<path d="M116.108,412.18v 2.53584" fill="none" stroke="black"/>
<path d="M120.462,409.644v 5.07169" fill="none" stroke="black"/>
<path d="M124.816,412.18v 2.53584" fill="none" stroke="black"/>
<path d="M129.17,412.18v 2.53584" fill="none" stroke="black"/>
<path d="M133.524,412.18v 2.53584" fill="none" stroke="black"/>
<path d="M137.878,412.18v 2.53584" fill="none" stroke="black"/>
<path d="M142.232,409.644v 5.07169" fill="none" stroke="black"/>
<path d="M146.586,412.18v 2.53584" fill="none" stroke="black"/>
<path d="M150.94,412.18v 2.53584" fill="none" stroke="black"/>
<path d="M155.294,412.18v 2.53584" fill="none" stroke="black"/>
<path d="M159.648,412.18v 2.53584" fill="none" stroke="black"/>
<path d="M164.002,409.644v 5.07169" fill="none" stroke="black"/>
<path d="M168.356,412.18v 2.53584" fill="none" stroke="black"/>
<path d="M172.71,412.18v 2.53584" fill="none" stroke="black"/>
<path d="M177.064,412.18v 2.53584" fill="none" stroke="black"/>
<path d="M181.418,412.18v 2.53584" fill="none" stroke="black"/>
<path d="M185.772,409.644v 5.07169" fill="none" stroke="black"/>
<path d="M190.126,412.18v 2.53584" fill="none" stroke="black"/>
<path d="M194.48,412.18v 2.53584" fill="none" stroke="black"/>
<path d="M198.834,412.18v 2.53584" fill="none" stroke="black"/>
<path d="M203.189,412.18v 2.53584" fill="none" stroke="black"/>
<path d="M207.543,409.644v 5.07169" fill="none" stroke="black"/>
<path d="M211.897,412.18v 2.53584" fill="none" stroke="black"/>
<path d="M216.251,412.18v 2.53584" fill="none" stroke="black"/>
<path d="M220.605,412.18v 2.53584" fill="none" stroke="black"/>
<path d="M224.959,412.18v 2.53584" fill="none" stroke="black"/>
<path d="M229.313,409.644v 5.07169" fill="none" stroke="black"/>
<path d="M233.667,412.18v 2.53584" fill="none" stroke="black"/>
<path d="M238.021,412.18v 2.53584" fill="none" stroke="black"/>
<path d="M242.375,412.18v 2.53584" fill="none" stroke="black"/>
<path d="M246.729,412.18v 2.53584" fill="none" stroke="black"/>
<path d="M251.083,409.644v 5.07169" fill="none" stroke="black"/>
<text xml:space="preserve" x="23.2226" y="421.504" fill="black" font-size="7.28551" font-family="Helvetica">23000</text>
<text xml:space="preserve" x="45.3772" y="421.504" fill="black" font-size="7.28551" font-family="Helvetica">23500</text>
<text xml:space="preserve" x="66.9636" y="421.504" fill="black" font-size="7.28551" font-family="Helvetica">24000</text>
<text xml:space="preserve" x="88.5501" y="421.504" fill="black" font-size="7.28551" font-family="Helvetica">24500</text>
<text xml:space="preserve" x="110.705" y="421.504" fill="black" font-size="7.28551" font-family="Helvetica">25000</text>
<text xml:space="preserve" x="132.291" y="421.504" fill="black" font-size="7.28551" font-family="Helvetica">25500</text>
<text xml:space="preserve" x="153.878" y="421.504" fill="black" font-size="7.28551" font-family="Helvetica">26000</text>
<text xml:space="preserve" x="176.032" y="421.504" fill="black" font-size="7.28551" font-family="Helvetica">26500</text>
<text xml:space="preserve" x="197.619" y="421.504" fill="black" font-size="7.28551" font-family="Helvetica">27000</text>
<text xml:space="preserve" x="219.205" y="421.504" fill="black" font-size="7.28551" font-family="Helvetica">27500</text>
<text xml:space="preserve" x="241.36" y="421.504" fill="black" font-size="7.28551" font-family="Helvetica">28000</text>
<path d="M33.3819,414.716v -169.056" fill="none" stroke="black"/>
<path d="M39.9129,414.716h -6.53102" fill="none" stroke="black"/>
<path d="M36.6474,410.167h -3.26551" fill="none" stroke="black"/>
<path d="M36.6474,405.618h -3.26551" fill="none" stroke="black"/>
<path d="M36.6474,401.069h -3.26551" fill="none" stroke="black"/>
<path d="M36.6474,396.52h -3.26551" fill="none" stroke="black"/>
<path d="M39.9129,391.971h -6.53102" fill="none" stroke="black"/>
<path d="M36.6474,387.422h -3.26551" fill="none" stroke="black"/>
<path d="M36.6474,382.873h -3.26551" fill="none" stroke="black"/>
<path d="M36.6474,378.324h -3.26551" fill="none" stroke="black"/>
<path d="M36.6474,373.775h -3.26551" fill="none" stroke="black"/>
<path d="M39.9129,369.226h -6.53102" fill="none" stroke="black"/>
<path d="M36.6474,364.677h -3.26551" fill="none" stroke="black"/>
<path d="M36.6474,360.128h -3.26551" fill="none" stroke="black"/>
<path d="M36.6474,355.579h -3.26551" fill="none" stroke="black"/>
<path d="M36.6474,351.03h -3.26551" fill="none" stroke="black"/>
<path d="M39.9129,346.481h -6.53102" fill="none" stroke="black"/>
<path d="M36.6474,341.932h -3.26551" fill="none" stroke="black"/>
<path d="M36.6474,337.383h -3.26551" fill="none" stroke="black"/>
<path d="M36.6474,332.834h -3.26551" fill="none" stroke="black"/>
<path d="M36.6474,328.285h -3.26551" fill="none" stroke="black"/>
<path d="M39.9129,323.736h -6.53102" fill="none" stroke="black"/>
<path d="M36.6474,319.187h -3.26551" fill="none" stroke="black"/>
<path d="M36.6474,314.638h -3.26551" fill="none" stroke="black"/>
<path d="M36.6474,310.089h -3.26551" fill="none" stroke="black"/>
<path d="M36.6474,305.54h -3.26551" fill="none" stroke="black"/>
<path d="M39.9129,300.991h -6.53102" fill="none" stroke="black"/>
<path d="M36.6474,296.442h -3.26551" fill="none" stroke="black"/>
<path d="M36.6474,291.893h -3.26551" fill="none" stroke="black"/>
<path d="M36.6474,287.344h -3.26551" fill="none" stroke="black"/>
<path d="M36.6474,282.795h -3.26551" fill="none" stroke="black"/>
<path d="M39.9129,278.246h -6.53102" fill="none" stroke="black"/>
<path d="M36.6474,273.698h -3.26551" fill="none" stroke="black"/>
<path d="M36.6474,269.148h -3.26551" fill="none" stroke="black"/>
<path d="M36.6474,264.6h -3.26551" fill="none" stroke="black"/>
<path d="M36.6474,260.051h -3.26551" fill="none" stroke="black"/>
<path d="M39.9129,255.502h -6.53102" fill="none" stroke="black"/>
<path d="M39.9129,255.502h -6.53102" fill="none" stroke="black"/>
<path d="M36.6474,250.953h -3.26551" fill="none" stroke="black"/>
<path d="M36.6474,246.404h -3.26551" fill="none" stroke="black"/>
<text xml:space="preserve" x="27.7671" y="417.528" fill="black" font-size="7.28551" font-family="Helvetica">0</text>
<text xml:space="preserve" x="16.4058" y="394.805" fill="black" font-size="7.28551" font-family="Helvetica">1000</text>
<text xml:space="preserve" x="16.4058" y="371.515" fill="black" font-size="7.28551" font-family="Helvetica">2000</text>
<text xml:space="preserve" x="16.4058" y="348.792" fill="black" font-size="7.28551" font-family="Helvetica">3000</text>
<text xml:space="preserve" x="16.4058" y="326.069" fill="black" font-size="7.28551" font-family="Helvetica">4000</text>
<text xml:space="preserve" x="16.4058" y="303.347" fill="black" font-size="7.28551" font-family="Helvetica">5000</text>
<text xml:space="preserve" x="16.4058" y="280.624" fill="black" font-size="7.28551" font-family="Helvetica">6000</text>
<text xml:space="preserve" x="16.4058" y="257.902" fill="black" font-size="7.28551" font-family="Helvetica">7000</text>
<g transform="rotate(-90,11.2932,266.991)">
<text xml:space="preserve" x="11.2932" y="266.991" fill="black" font-size="7.28551" font-family="Helvetica">Counts</text>
</g>
<text xml:space="preserve" x="59.5788" y="235.179" fill="black" font-size="10.6001" font-family="Helvetica">Charge Distribution RPC1_3 6700 V</text>
<rect x="218.428" y="238.264" width="54.4252" height="33.8112" fill="white"/>
<path d="M218.428,272.075h 54.4252" fill="none" stroke="black"/>
<path d="M272.853,272.075v -33.8112" fill="none" stroke="black"/>
<path d="M272.853,238.264h -54.4252" fill="none" stroke="black"/>
<path d="M218.428,238.264v 33.8112" fill="none" stroke="black"/>
<text xml:space="preserve" x="239.087" y="244.836" fill="black" font-size="7.63448" font-family="Helvetica">hc3</text>
<path d="M218.428,246.716h 54.4252" fill="none" stroke="black"/>
<text xml:space="preserve" x="220.909" y="252.789" fill="black" font-size="6.00967" font-family="Helvetica">Entries </text>
<text xml:space="preserve" x="253.289" y="252.789" fill="black" font-size="6.00967" font-family="Helvetica"> 20261</text>
<text xml:space="preserve" x="220.909" y="261.31" fill="black" font-size="6.00967" font-family="Helvetica">Mean  </text>
<text xml:space="preserve" x="241.36" y="261.31" fill="black" font-size="6.00967" font-family="Helvetica"> 2.743e+04</text>
<text xml:space="preserve" x="220.909" y="269.831" fill="black" font-size="6.00967" font-family="Helvetica">Std Dev   </text>
<text xml:space="preserve" x="252.153" y="269.831" fill="black" font-size="6.00967" font-family="Helvetica">  60.96</text>
<text xml:space="preserve" x="59.5788" y="235.179" fill="black" font-size="10.6001" font-family="Helvetica">Charge Distribution RPC1_3 6700 V</text>
<rect x="289.634" y="224.528" width="272.126" height="211.32" fill="white"/>
<rect x="316.846" y="245.66" width="217.701" height="169.056" fill="white"/>
<rect x="316.846" y="245.66" width="217.701" height="169.056" fill="none" stroke="black"/>
<path d="M316.846,414.716v -0.350885h 0.870803v 0.350885h 20.8993v -0.350885h 0.870803v 0.350885h 0.870803v -0.350885h 0.870803v 0.350885h 6.96642v -0.350885h 0.870803v 0.350885h 4.35402v -0.350885h 0.870803v 0.350885h 7.83723v -0.701769h 0.870803v
 0.701769h 9.57883v -0.350885h 0.870803v 0.350885h 1.74161v -0.350885h 0.870803v 0.350885h 9.57883v -0.350885h 1.74161v 0.350885h 6.09562v -0.701769h 0.870803v 0.701769h 0.870803v -0.701769h 0.870803v 0.701769h 0.870803v -0.350885h 0.870803v
 0.350885h 8.70803v -0.350885h 0.870803v 0.350885h 5.22482v -0.350885h 0.870803v 0.350885h 1.74161v -0.350885h 1.74161v 0.350885h 0.870803v -0.350885h 0.870803v 0.350885h 0.870803v -0.701769h 0.870803v 0.701769h 3.48321v -0.350885h 0.870803v
 -0.350885h 0.870803v 0.350885h 0.870803v 0.350885h 0.870803v -0.350885h 1.74161v 0.350885h 0.870803v -0.350885h 2.61241v 0.350885h 2.61241v -0.701769h 1.74161v 0.701769h 0.870803v -0.350885h 0.870803v 0.350885h 3.48321v -1.05265h 0.870803v 0.701769h
 0.870803v 0.350885h 0.870803v -0.701769h 0.870803v 0.350885h 3.48321v 0.350885h 1.74161v -0.701769h 0.870803v 0.701769h 0.870803v -0.350885h 0.870803v -0.701769h 0.870803v 0.350885h 0.870803v -0.350885h 0.870803v 0.701769h 1.74161v 0.350885h
 0.870803v -0.350885h 0.870803v -0.350885h 0.870803v -0.701769h 0.870803v 0.350885h 0.870803v -0.701769h 0.870803v 0.701769h 0.870803v -0.350885h 0.870803v 1.05265h 0.870803v -2.10531h 0.870803v -1.05265h 0.870803v -5.61415h 0.870803v -11.2283h
 0.870803v -11.5792h 0.870803v -23.1584h 0.870803v -29.8252h 0.870803v -24.9128h 0.870803v -34.0358h 0.870803v 3.15796h 0.870803v -8.42123h 0.870803v -4.5615h 0.870803v 9.82477h 0.870803v 30.1761h 0.870803v -15.4389h 0.870803v 0.350885h 0.870803v
 -11.2283h 0.870803v 37.5447h 0.870803v 37.1938h 0.870803v 37.1938h 0.870803v 16.4916h 0.870803v 5.96504h 0.870803v 2.80708h 0.870803v 1.75442h 0.870803v -0.350885h 0.870803v 0.350885h 0.870803v 0.350885h 0.870803v 0.701769h 1.74161v -1.40354h
 0.870803v 0.701769h 1.74161v 0.350885h 0.870803v -0.701769h 1.74161v 0.701769h 0.870803v 0.350885h 0.870803v -1.05265h 0.870803v 0.701769h 2.61241v 0.350885h 0.870803v -1.40354h 0.870803v 1.40354h 3.48321v -1.05265h 0.870803v 1.05265h 26.9949z"
 fill="#0000ff"/>
<path d="M316.846,414.365h 0.870803v 0.350885h 20.8993v -0.350885h 0.870803v 0.350885h 0.870803v -0.350885h 0.870803v 0.350885h 6.96642v -0.350885h 0.870803v 0.350885h 4.35402v -0.350885h 0.870803v 0.350885h 7.83723v -0.701769h 0.870803v 0.701769h
 9.57883v -0.350885h 0.870803v 0.350885h 1.74161v -0.350885h 0.870803v 0.350885h 9.57883v -0.350885h 1.74161v 0.350885h 6.09562v -0.701769h 0.870803v 0.701769h 0.870803v -0.701769h 0.870803v 0.701769h 0.870803v -0.350885h 0.870803v 0.350885h 8.70803v
 -0.350885h 0.870803v 0.350885h 5.22482v -0.350885h 0.870803v 0.350885h 1.74161v -0.350885h 1.74161v 0.350885h 0.870803v -0.350885h 0.870803v 0.350885h 0.870803v -0.701769h 0.870803v 0.701769h 3.48321v -0.350885h 0.870803v -0.350885h 0.870803v
 0.350885h 0.870803v 0.350885h 0.870803v -0.350885h 1.74161v 0.350885h 0.870803v -0.350885h 2.61241v 0.350885h 2.61241v -0.701769h 1.74161v 0.701769h 0.870803v -0.350885h 0.870803v 0.350885h 3.48321v -1.05265h 0.870803v 0.701769h 0.870803v 0.350885h
 0.870803v -0.701769h 0.870803v 0.350885h 3.48321v 0.350885h 1.74161v -0.701769h 0.870803v 0.701769h 0.870803v -0.350885h 0.870803v -0.701769h 0.870803v 0.350885h 0.870803v -0.350885h 0.870803v 0.701769h 1.74161v 0.350885h 0.870803v -0.350885h
 0.870803v -0.350885h 0.870803v -0.701769h 0.870803v 0.350885h 0.870803v -0.701769h 0.870803v 0.701769h 0.870803v -0.350885h 0.870803v 1.05265h 0.870803v -2.10531h 0.870803v -1.05265h 0.870803v -5.61415h 0.870803v -11.2283h 0.870803v -11.5792h
 0.870803v -23.1584h 0.870803v -29.8252h 0.870803v -24.9128h 0.870803v -34.0358h 0.870803v 3.15796h 0.870803v -8.42123h 0.870803v -4.5615h 0.870803v 9.82477h 0.870803v 30.1761h 0.870803v -15.4389h 0.870803v 0.350885h 0.870803v -11.2283h 0.870803v
 37.5447h 0.870803v 37.1938h 0.870803v 37.1938h 0.870803v 16.4916h 0.870803v 5.96504h 0.870803v 2.80708h 0.870803v 1.75442h 0.870803v -0.350885h 0.870803v 0.350885h 0.870803v 0.350885h 0.870803v 0.701769h 1.74161v -1.40354h 0.870803v 0.701769h
 1.74161v 0.350885h 0.870803v -0.701769h 1.74161v 0.701769h 0.870803v 0.350885h 0.870803v -1.05265h 0.870803v 0.701769h 2.61241v 0.350885h 0.870803v -1.40354h 0.870803v 1.40354h 3.48321v -1.05265h 0.870803v 1.05265h 26.9949" fill="none"
 stroke="#0000ff"/>
<path d="M316.846,414.716h 217.701" fill="none" stroke="black"/>
<path d="M316.846,409.644v 5.07169" fill="none" stroke="black"/>
<path d="M321.2,412.18v 2.53584" fill="none" stroke="black"/>
<path d="M325.555,412.18v 2.53584" fill="none" stroke="black"/>
<path d="M329.909,412.18v 2.53584" fill="none" stroke="black"/>
<path d="M334.263,412.18v 2.53584" fill="none" stroke="black"/>
<path d="M338.617,409.644v 5.07169" fill="none" stroke="black"/>
<path d="M342.971,412.18v 2.53584" fill="none" stroke="black"/>
<path d="M347.325,412.18v 2.53584" fill="none" stroke="black"/>
<path d="M351.679,412.18v 2.53584" fill="none" stroke="black"/>
<path d="M356.033,412.18v 2.53584" fill="none" stroke="black"/>
<path d="M360.387,409.644v 5.07169" fill="none" stroke="black"/>
<path d="M364.741,412.18v 2.53584" fill="none" stroke="black"/>
<path d="M369.095,412.18v 2.53584" fill="none" stroke="black"/>
<path d="M373.449,412.18v 2.53584" fill="none" stroke="black"/>
<path d="M377.803,412.18v 2.53584" fill="none" stroke="black"/>
<path d="M382.157,409.644v 5.07169" fill="none" stroke="black"/>
<path d="M386.511,412.18v 2.53584" fill="none" stroke="black"/>
<path d="M390.865,412.18v 2.53584" fill="none" stroke="black"/>
<path d="M395.219,412.18v 2.53584" fill="none" stroke="black"/>
<path d="M399.573,412.18v 2.53584" fill="none" stroke="black"/>
<path d="M403.927,409.644v 5.07169" fill="none" stroke="black"/>
<path d="M408.281,412.18v 2.53584" fill="none" stroke="black"/>
<path d="M412.635,412.18v 2.53584" fill="none" stroke="black"/>
<path d="M416.989,412.18v 2.53584" fill="none" stroke="black"/>
<path d="M421.343,412.18v 2.53584" fill="none" stroke="black"/>
<path d="M425.697,409.644v 5.07169" fill="none" stroke="black"/>
<path d="M430.051,412.18v 2.53584" fill="none" stroke="black"/>
<path d="M434.405,412.18v 2.53584" fill="none" stroke="black"/>
<path d="M438.759,412.18v 2.53584" fill="none" stroke="black"/>
<path d="M443.113,412.18v 2.53584" fill="none" stroke="black"/>
<path d="M447.467,409.644v 5.07169" fill="none" stroke="black"/>
<path d="M451.821,412.18v 2.53584" fill="none" stroke="black"/>
<path d="M456.175,412.18v 2.53584" fill="none" stroke="black"/>
<path d="M460.529,412.18v 2.53584" fill="none" stroke="black"/>
<path d="M464.883,412.18v 2.53584" fill="none" stroke="black"/>
<path d="M469.237,409.644v 5.07169" fill="none" stroke="black"/>
<path d="M473.591,412.18v 2.53584" fill="none" stroke="black"/>
<path d="M477.945,412.18v 2.53584" fill="none" stroke="black"/>
<path d="M482.299,412.18v 2.53584" fill="none" stroke="black"/>
<path d="M486.653,412.18v 2.53584" fill="none" stroke="black"/>
<path d="M491.007,409.644v 5.07169" fill="none" stroke="black"/>
<path d="M495.361,412.18v 2.53584" fill="none" stroke="black"/>
<path d="M499.715,412.18v 2.53584" fill="none" stroke="black"/>
<path d="M504.069,412.18v 2.53584" fill="none" stroke="black"/>
<path d="M508.423,412.18v 2.53584" fill="none" stroke="black"/>
<path d="M512.777,409.644v 5.07169" fill="none" stroke="black"/>
<path d="M517.131,412.18v 2.53584" fill="none" stroke="black"/>
<path d="M521.485,412.18v 2.53584" fill="none" stroke="black"/>
<path d="M525.839,412.18v 2.53584" fill="none" stroke="black"/>
<path d="M530.193,412.18v 2.53584" fill="none" stroke="black"/>
<path d="M534.547,409.644v 5.07169" fill="none" stroke="black"/>
<text xml:space="preserve" x="306.687" y="421.504" fill="black" font-size="7.28551" font-family="Helvetica">23000</text>
<text xml:space="preserve" x="328.842" y="421.504" fill="black" font-size="7.28551" font-family="Helvetica">23500</text>
<text xml:space="preserve" x="350.428" y="421.504" fill="black" font-size="7.28551" font-family="Helvetica">24000</text>
<text xml:space="preserve" x="372.015" y="421.504" fill="black" font-size="7.28551" font-family="Helvetica">24500</text>
<text xml:space="preserve" x="394.169" y="421.504" fill="black" font-size="7.28551" font-family="Helvetica">25000</text>
<text xml:space="preserve" x="415.756" y="421.504" fill="black" font-size="7.28551" font-family="Helvetica">25500</text>
<text xml:space="preserve" x="437.342" y="421.504" fill="black" font-size="7.28551" font-family="Helvetica">26000</text>
<text xml:space="preserve" x="459.497" y="421.504" fill="black" font-size="7.28551" font-family="Helvetica">26500</text>
<text xml:space="preserve" x="481.083" y="421.504" fill="black" font-size="7.28551" font-family="Helvetica">27000</text>
<text xml:space="preserve" x="502.67" y="421.504" fill="black" font-size="7.28551" font-family="Helvetica">27500</text>
<text xml:space="preserve" x="524.824" y="421.504" fill="black" font-size="7.28551" font-family="Helvetica">28000</text>
<path d="M316.846,414.716v -169.056" fill="none" stroke="black"/>
<path d="M323.377,414.716h -6.53102" fill="none" stroke="black"/>
<path d="M320.112,411.207h -3.26551" fill="none" stroke="black"/>
<path d="M320.112,407.698h -3.26551" fill="none" stroke="black"/>
<path d="M320.112,404.19h -3.26551" fill="none" stroke="black"/>
<path d="M320.112,400.681h -3.26551" fill="none" stroke="black"/>
<path d="M323.377,397.172h -6.53102" fill="none" stroke="black"/>
<path d="M320.112,393.663h -3.26551" fill="none" stroke="black"/>
<path d="M320.112,390.154h -3.26551" fill="none" stroke="black"/>
<path d="M320.112,386.645h -3.26551" fill="none" stroke="black"/>
<path d="M320.112,383.136h -3.26551" fill="none" stroke="black"/>
<path d="M323.377,379.628h -6.53102" fill="none" stroke="black"/>
<path d="M320.112,376.119h -3.26551" fill="none" stroke="black"/>
<path d="M320.112,372.61h -3.26551" fill="none" stroke="black"/>
<path d="M320.112,369.101h -3.26551" fill="none" stroke="black"/>
<path d="M320.112,365.592h -3.26551" fill="none" stroke="black"/>
<path d="M323.377,362.083h -6.53102" fill="none" stroke="black"/>
<path d="M320.112,358.574h -3.26551" fill="none" stroke="black"/>
<path d="M320.112,355.066h -3.26551" fill="none" stroke="black"/>
<path d="M320.112,351.557h -3.26551" fill="none" stroke="black"/>
<path d="M320.112,348.048h -3.26551" fill="none" stroke="black"/>
<path d="M323.377,344.539h -6.53102" fill="none" stroke="black"/>
<path d="M320.112,341.03h -3.26551" fill="none" stroke="black"/>
<path d="M320.112,337.521h -3.26551" fill="none" stroke="black"/>
<path d="M320.112,334.013h -3.26551" fill="none" stroke="black"/>
<path d="M320.112,330.504h -3.26551" fill="none" stroke="black"/>
<path d="M323.377,326.995h -6.53102" fill="none" stroke="black"/>
<path d="M320.112,323.486h -3.26551" fill="none" stroke="black"/>
<path d="M320.112,319.977h -3.26551" fill="none" stroke="black"/>
<path d="M320.112,316.468h -3.26551" fill="none" stroke="black"/>
<path d="M320.112,312.96h -3.26551" fill="none" stroke="black"/>
<path d="M323.377,309.451h -6.53102" fill="none" stroke="black"/>
<path d="M320.112,305.942h -3.26551" fill="none" stroke="black"/>
<path d="M320.112,302.433h -3.26551" fill="none" stroke="black"/>
<path d="M320.112,298.924h -3.26551" fill="none" stroke="black"/>
<path d="M320.112,295.415h -3.26551" fill="none" stroke="black"/>
<path d="M323.377,291.906h -6.53102" fill="none" stroke="black"/>
<path d="M320.112,288.398h -3.26551" fill="none" stroke="black"/>
<path d="M320.112,284.889h -3.26551" fill="none" stroke="black"/>
<path d="M320.112,281.38h -3.26551" fill="none" stroke="black"/>
<path d="M320.112,277.871h -3.26551" fill="none" stroke="black"/>
<path d="M323.377,274.362h -6.53102" fill="none" stroke="black"/>
<path d="M320.112,270.853h -3.26551" fill="none" stroke="black"/>
<path d="M320.112,267.344h -3.26551" fill="none" stroke="black"/>
<path d="M320.112,263.836h -3.26551" fill="none" stroke="black"/>
<path d="M320.112,260.327h -3.26551" fill="none" stroke="black"/>
<path d="M323.377,256.818h -6.53102" fill="none" stroke="black"/>
<path d="M323.377,256.818h -6.53102" fill="none" stroke="black"/>
<path d="M320.112,253.309h -3.26551" fill="none" stroke="black"/>
<path d="M320.112,249.8h -3.26551" fill="none" stroke="black"/>
<path d="M320.112,246.291h -3.26551" fill="none" stroke="black"/>
<text xml:space="preserve" x="311.232" y="417.528" fill="black" font-size="7.28551" font-family="Helvetica">0</text>
<text xml:space="preserve" x="307.823" y="399.918" fill="black" font-size="7.28551" font-family="Helvetica">50</text>
<text xml:space="preserve" x="303.847" y="382.308" fill="black" font-size="7.28551" font-family="Helvetica">100</text>
<text xml:space="preserve" x="303.847" y="364.698" fill="black" font-size="7.28551" font-family="Helvetica">150</text>
<text xml:space="preserve" x="303.847" y="347.088" fill="black" font-size="7.28551" font-family="Helvetica">200</text>
<text xml:space="preserve" x="303.847" y="329.478" fill="black" font-size="7.28551" font-family="Helvetica">250</text>
<text xml:space="preserve" x="303.847" y="311.868" fill="black" font-size="7.28551" font-family="Helvetica">300</text>
<text xml:space="preserve" x="303.847" y="294.258" fill="black" font-size="7.28551" font-family="Helvetica">350</text>
<text xml:space="preserve" x="303.847" y="276.648" fill="black" font-size="7.28551" font-family="Helvetica">400</text>
<text xml:space="preserve" x="303.847" y="259.606" fill="black" font-size="7.28551" font-family="Helvetica">450</text>
<g transform="rotate(-90,298.734,266.991)">
<text xml:space="preserve" x="298.734" y="266.991" fill="black" font-size="7.28551" font-family="Helvetica">Counts</text>
</g>
<text xml:space="preserve" x="343.043" y="235.179" fill="black" font-size="10.6001" font-family="Helvetica">Charge Distribution RPC1_4 6700 V</text>
<rect x="501.892" y="238.264" width="54.4252" height="33.8112" fill="white"/>
<path d="M501.892,272.075h 54.4252" fill="none" stroke="black"/>
<path d="M556.317,272.075v -33.8112" fill="none" stroke="black"/>
<path d="M556.317,238.264h -54.4252" fill="none" stroke="black"/>
<path d="M501.892,238.264v 33.8112" fill="none" stroke="black"/>
<text xml:space="preserve" x="522.552" y="244.836" fill="black" font-size="7.63448" font-family="Helvetica">hc4</text>
<path d="M501.892,246.716h 54.4252" fill="none" stroke="black"/>
<text xml:space="preserve" x="504.374" y="252.789" fill="black" font-size="6.00967" font-family="Helvetica">Entries </text>
<text xml:space="preserve" x="539.026" y="252.789" fill="black" font-size="6.00967" font-family="Helvetica"> 5204</text>
<text xml:space="preserve" x="504.374" y="261.31" fill="black" font-size="6.00967" font-family="Helvetica">Mean  </text>
<text xml:space="preserve" x="524.824" y="261.31" fill="black" font-size="6.00967" font-family="Helvetica"> 2.665e+04</text>
<text xml:space="preserve" x="504.374" y="269.831" fill="black" font-size="6.00967" font-family="Helvetica">Std Dev   </text>
<text xml:space="preserve" x="535.617" y="269.831" fill="black" font-size="6.00967" font-family="Helvetica">  186.2</text>
<text xml:space="preserve" x="343.043" y="235.179" fill="black" font-size="10.6001" font-family="Helvetica">Charge Distribution RPC1_4 6700 V</text></svg>
